<svg width="120" height="120" viewBox="0 0 120 120" fill="none" xmlns="http://www.w3.org/2000/svg">
<g clip-path="url(#clip0_582_12910)">
<path d="M105.429 22.4116L97.0098 13.9922L1.0972 109.905L9.51661 118.324L105.429 22.4116Z" fill="white"/>
<path opacity="0.0336538" d="M101.235 18.4069L97.0586 14.2305L1.33406 109.955L5.51051 114.131L101.235 18.4069Z" fill="url(#paint0_linear_582_12910)"/>
<path opacity="0.0336538" d="M101.191 18.3339L105.307 22.4492L9.61349 118.142L5.49815 114.027L101.191 18.3339Z" fill="url(#paint1_linear_582_12910)"/>
<path d="M70.7754 40.3242L79.1853 48.7341" stroke="black" stroke-width="0.255138"/>
<path d="M106.518 21.3945L15.227 112.685" stroke="black" stroke-width="0.255138"/>
<path d="M1.16602 109.93L9.57594 118.34" stroke="black" stroke-width="0.255138"/>
<path d="M98.1055 12.9922L6.81489 104.283" stroke="black" stroke-width="0.255138"/>
<path d="M85.0898 26.0039L93.4998 34.4138" stroke="black" stroke-width="0.255138"/>
<path d="M8.40129 117.167L8.27323 117.295C7.10497 117.617 5.99823 118.13 4.99812 118.814L7.2128 121.029C7.897 120.029 8.41045 118.922 8.73221 117.754L8.86027 117.626L8.40129 117.167Z" fill="#333333" stroke="black" stroke-width="0.255138"/>
<path d="M5.13762 113.909L5.00956 114.037C3.84131 114.359 2.73456 114.872 1.73445 115.557L3.94913 117.771C4.63333 116.771 5.14678 115.664 5.46854 114.496L5.59659 114.368L5.13762 113.909Z" fill="#333333" stroke="black" stroke-width="0.255138"/>
<path d="M1.87786 110.647L1.7498 110.775C0.581542 111.097 -0.525206 111.611 -1.52532 112.295L0.689369 114.51C1.37357 113.509 1.88701 112.403 2.20877 111.234L2.33683 111.106L1.87786 110.647Z" fill="#333333" stroke="black" stroke-width="0.255138"/>
<path d="M5.25977 109.277L10.232 114.25" stroke="black" stroke-width="0.255138"/>
<path d="M13.5618 115.353L13.6897 115.197L13.8189 115.036L13.9484 114.871L14.0774 114.702L14.2051 114.531L14.3304 114.357L14.4526 114.18L14.5708 114.002L14.6841 113.822L14.7915 113.641L14.8922 113.459L14.9853 113.277L15.07 113.096L15.1453 112.915L15.2111 112.735L15.2675 112.558L15.3152 112.383L15.3545 112.212L15.3859 112.045L15.4098 111.883L15.4265 111.727L15.4366 111.578L15.4405 111.436L15.4386 111.303L15.4314 111.179L15.4192 111.064L15.4023 110.961L15.3273 110.945L15.2378 110.946L15.1428 110.951L15.0423 110.959L14.9368 110.971L14.8262 110.987L14.7109 111.009L14.591 111.035L14.4667 111.067L14.3383 111.105L14.206 111.149L14.0699 111.199L13.9302 111.256L13.7872 111.32L13.6406 111.392L13.4898 111.472L13.334 111.561L13.1723 111.661L13.004 111.772L12.8282 111.895L12.6442 112.03L12.4511 112.18L12.2481 112.344L12.0346 112.523L11.8095 112.719L11.5722 112.932L11.3218 113.163L11.0691 113.411L10.8192 113.661L10.5692 113.911L10.3192 114.161L10.0692 114.411L9.81919 114.661L9.56921 114.911L9.31922 115.161L9.06921 115.411L8.81923 115.661L8.56927 115.911L8.31926 116.161L8.06924 116.411L7.87829 116.649L8.04166 116.812L8.20503 116.976L8.36842 117.139L8.5318 117.302L8.69518 117.466L8.85855 117.629L9.02193 117.792L9.18531 117.956L9.34869 118.119L9.51206 118.283L9.67544 118.446L9.83882 118.609L10.0022 118.773L10.2192 118.696L10.4762 118.439L10.7334 118.182L10.9904 117.925L11.2475 117.667L11.5047 117.41L11.7618 117.153L12.0189 116.896L12.276 116.639L12.5331 116.382L12.7902 116.125L13.0473 115.868L13.3044 115.611L13.5615 115.353L13.5618 115.353Z" fill="#F2F2F2" stroke="black" stroke-width="0.255138"/>
<path d="M4.15532 105.945L4.31176 105.817L4.47258 105.687L4.63744 105.558L4.80581 105.429L4.97736 105.301L5.15159 105.176L5.32821 105.054L5.50663 104.936L5.68655 104.822L5.86748 104.715L6.04905 104.614L6.23076 104.521L6.41235 104.436L6.59321 104.361L6.77291 104.295L6.95052 104.239L7.12538 104.191L7.29669 104.152L7.4636 104.12L7.62539 104.097L7.78119 104.08L7.93031 104.07L8.07192 104.066L8.20523 104.068L8.32947 104.075L8.44384 104.087L8.54733 104.104L8.56282 104.179L8.56191 104.268L8.55762 104.364L8.54955 104.464L8.53741 104.57L8.5208 104.68L8.49945 104.795L8.47297 104.915L8.44107 105.04L8.40339 105.168L8.35964 105.3L8.30944 105.436L8.25253 105.576L8.18843 105.719L8.11671 105.866L8.03657 106.016L7.94706 106.172L7.84734 106.334L7.73647 106.502L7.61366 106.678L7.47798 106.862L7.3286 107.055L7.16461 107.258L6.98516 107.472L6.78932 107.697L6.57624 107.934L6.34506 108.185L6.09694 108.437L5.84698 108.687L5.59697 108.937L5.34699 109.187L5.09697 109.437L4.84699 109.687L4.597 109.937L4.34702 110.187L4.09701 110.437L3.84702 110.687L3.59706 110.937L3.34705 111.187L3.09704 111.437L2.85944 111.628L2.69606 111.465L2.53269 111.301L2.36931 111.138L2.20593 110.975L2.04255 110.811L1.87918 110.648L1.7158 110.484L1.55242 110.321L1.38904 110.158L1.22567 109.994L1.06229 109.831L0.89891 109.667L0.735529 109.504L0.812457 109.287L1.06954 109.03L1.32666 108.773L1.58375 108.516L1.84083 108.259L2.09798 108.002L2.35506 107.745L2.61218 107.487L2.86926 107.23L3.12641 106.973L3.38347 106.716L3.64061 106.459L3.89769 106.202L4.15481 105.945L4.15532 105.945Z" fill="#F2F2F2" stroke="black" stroke-width="0.255138"/>
<path d="M112.552 15.2827L104.133 6.86328L97.0145 13.9816L105.434 22.401L112.552 15.2827Z" fill="white"/>
<path opacity="0.0336538" d="M108.437 11.207L104.195 6.96484L97.1033 14.0569L101.345 18.299L108.437 11.207Z" fill="url(#paint2_linear_582_12910)"/>
<path opacity="0.0336538" d="M108.379 11.1481L112.559 15.3281L105.469 22.4178L101.289 18.2378L108.379 11.1481Z" fill="url(#paint3_linear_582_12910)"/>
<path d="M112.989 15.6105L113.057 15.5535L113.121 15.4919L113.181 15.4259L113.236 15.356L113.386 15.1014L113.703 14.5448L114.019 13.9882L114.335 13.4317L114.652 12.8751L114.968 12.3185L115.284 11.7619L115.601 11.2053L115.917 10.6487L116.233 10.0922L116.55 9.53559L116.866 8.979L117.182 8.42241L117.499 7.86583L117.815 7.30924L117.89 7.16478L117.941 7.05472L117.994 6.93703L118.047 6.81247L118.101 6.68177L118.154 6.54562L118.206 6.40475L118.257 6.25984L118.306 6.11164L118.353 5.96086L118.397 5.80822L118.437 5.65441L118.473 5.50011L118.504 5.34611L118.531 5.19307L118.552 5.04147L118.568 4.8914L118.579 4.74297L118.585 4.59636L118.587 4.45165L118.584 4.30896L118.577 4.16836L118.566 4.03008L118.55 3.89416L118.531 3.7607L118.508 3.62986L118.482 3.50174L118.452 3.37645L118.42 3.25411L118.384 3.13488L118.345 3.01871L118.304 2.90556L118.259 2.79548L118.212 2.68844L118.163 2.58443L118.111 2.4834L118.056 2.38541L117.999 2.2904L117.94 2.1984L117.878 2.10938L117.814 2.02331L117.748 1.94021L117.68 1.86003L117.607 1.78635L117.526 1.71845L117.443 1.65254L117.357 1.58876L117.268 1.52716L117.176 1.4678L117.081 1.41079L116.983 1.35618L116.882 1.30405L116.778 1.25444L116.671 1.20745L116.561 1.16316L116.448 1.12165L116.332 1.08294L116.213 1.04712L116.09 1.01436L115.965 0.984755L115.837 0.958445L115.706 0.935624L115.573 0.916464L115.437 0.90111L115.298 0.889727L115.158 0.882535L115.015 0.879638L114.87 0.881214L114.724 0.887442L114.575 0.898515L114.425 0.914551L114.274 0.935713L114.121 0.962209L113.967 0.993757L113.812 1.0299L113.658 1.07005L113.506 1.11369L113.355 1.16033L113.207 1.20941L113.062 1.26044L112.921 1.31282L112.785 1.36606L112.654 1.41964L112.53 1.47302L112.412 1.52568L112.302 1.5771L112.157 1.65166L111.601 1.96799L111.044 2.28433L110.488 2.60067L109.931 2.917L109.375 3.2333L108.818 3.54964L108.261 3.86597L107.705 4.18231L107.148 4.49862L106.592 4.81495L106.035 5.13129L105.478 5.44762L104.922 5.76396L104.365 6.08026L104.111 6.23086L104.041 6.28578L103.975 6.34553L103.913 6.40978L103.856 6.47777" fill="url(#paint4_radial_582_12910)"/>
<path d="M104.136 7.73745C104.151 7.72234 104.15 7.68046 104.133 7.60952C104.119 7.55147 104.11 7.46515 104.113 7.4177C104.118 7.32136 104.187 7.15025 104.259 7.05086C104.343 6.93578 104.356 6.89694 104.335 6.82412C104.295 6.68834 104.224 6.58291 104.091 6.462L103.966 6.34849L104.014 6.30631L104.063 6.26413L108.608 10.8087L113.152 15.3532L113.11 15.4017L113.068 15.4502L112.954 15.3251C112.833 15.1918 112.728 15.1208 112.592 15.0814C112.519 15.0603 112.48 15.0732 112.365 15.1571C112.266 15.2296 112.095 15.2977 111.998 15.3033C111.951 15.3061 111.865 15.2969 111.807 15.283C111.736 15.266 111.694 15.265 111.679 15.2801C111.657 15.3016 111.498 15.1447 107.885 11.5315C104.272 7.91819 104.115 7.75943 104.137 7.73787L104.136 7.73745Z" fill="#ECECEC"/>
<path d="M111.838 15.244L111.333 15.7488L110.828 16.2536L110.324 16.7583L109.819 17.2631L109.314 17.7679L108.809 18.2727L108.305 18.7774L107.8 19.2822L107.295 19.787L106.79 20.2917L106.286 20.7965L105.781 21.3013L105.276 21.806L104.771 22.3108L104.383 22.7394L104.581 22.7776L104.774 22.8073L104.962 22.8291L105.144 22.8436L105.317 22.8515L105.483 22.8534L105.638 22.8498L105.783 22.8416L105.917 22.8292L106.037 22.8133L106.144 22.7946L106.237 22.7736L106.314 22.7511L106.374 22.7275L106.552 22.5643L106.998 22.1185L107.443 21.6726L107.889 21.2268L108.335 20.781L108.781 20.3351L109.227 19.8893L109.673 19.4434L110.118 18.9976L110.564 18.5517L111.01 18.1059L111.456 17.66L111.902 17.2142L112.348 16.7683L112.794 16.3225L113.024 16.0731L113.034 16.0226L113.04 15.9705L113.043 15.9172L113.042 15.8628L113.038 15.8079L113.029 15.7526L113.017 15.6974L113.001 15.6427L112.981 15.589L112.957 15.5366L112.93 15.486L112.899 15.4375L112.865 15.3915L112.828 15.3483L112.789 15.3081L112.747 15.271L112.703 15.2374L112.658 15.2073L112.612 15.1807L112.565 15.1576L112.518 15.1379L112.483 15.1527L112.45 15.1776L112.415 15.2007L112.378 15.2217L112.339 15.2402L112.299 15.2563L112.258 15.2697L112.215 15.2802L112.172 15.2877L112.129 15.2923L112.085 15.2938L112.042 15.2923L111.999 15.288L111.957 15.2808L111.916 15.2709L111.876 15.2585L111.838 15.2439L111.838 15.244Z" fill="url(#paint5_linear_582_12910)"/>
<path d="M104.22 7.63213L103.715 8.13692L103.211 8.64168L102.706 9.14643L102.201 9.65122L101.696 10.156L101.192 10.6607L100.687 11.1655L100.182 11.6703L99.6773 12.175L99.1725 12.6798L98.6678 13.1846L98.163 13.6894L97.6582 14.1941L97.1534 14.6989L96.7248 15.0873L96.6866 14.8892L96.657 14.6957L96.6352 14.5078L96.6207 14.3264L96.6128 14.1527L96.6109 13.9875L96.6144 13.8319L96.6227 13.6869L96.635 13.5536L96.6509 13.4328L96.6696 13.3257L96.6906 13.2332L96.7132 13.1563L96.7368 13.0961L96.8999 12.9184L97.3458 12.4726L97.7916 12.0267L98.2374 11.5809L98.6833 11.1351L99.1291 10.6892L99.575 10.2434L100.021 9.79752L100.467 9.35167L100.913 8.90582L101.358 8.46L101.804 8.01415L102.25 7.5683L102.696 7.12246L103.142 6.67661L103.391 6.44584L103.442 6.43651L103.494 6.43028L103.547 6.42745L103.601 6.42812L103.656 6.43251L103.712 6.44069L103.767 6.45288L103.822 6.46895L103.875 6.48892L103.928 6.5127L103.978 6.54009L104.027 6.571L104.073 6.60511L104.116 6.64204L104.156 6.68158L104.193 6.72316L104.227 6.76674L104.257 6.81174L104.284 6.85784L104.307 6.90463L104.326 6.95176L104.312 6.98698L104.287 7.02L104.264 7.05499L104.243 7.09193L104.224 7.13062L104.208 7.17087L104.195 7.21236L104.184 7.25481L104.177 7.29795L104.172 7.3415L104.17 7.38506L104.172 7.42845L104.176 7.47125L104.183 7.51323L104.193 7.55416L104.206 7.59373L104.22 7.63181L104.22 7.63213Z" fill="url(#paint6_linear_582_12910)"/>
<path d="M97.418 14.4766L105.033 22.0918" stroke="black" stroke-width="0.255138"/>
<path d="M104.172 7.71875L111.787 15.334" stroke="black" stroke-width="0.255138"/>
<path d="M104.172 6.21875L113.283 15.3301" stroke="black" stroke-width="0.255138"/>
<path d="M112.227 1.64453L117.862 7.27968" stroke="black" stroke-width="0.255138"/>
<path d="M111.854 15.2675L111.349 15.7722L110.844 16.277L110.339 16.7818L109.835 17.2865L109.33 17.7913L108.825 18.2961L108.32 18.8009L107.815 19.3056L107.311 19.8104L106.806 20.3152L106.301 20.8199L105.796 21.3247L105.292 21.8295L104.787 22.3342L104.398 22.7629L104.597 22.8011L104.79 22.8307L104.978 22.8525L105.159 22.867L105.333 22.8749L105.498 22.8768L105.654 22.8733L105.799 22.865L105.932 22.8526L106.053 22.8368L106.16 22.8181L106.253 22.7971L106.329 22.7745L106.39 22.7509L106.567 22.5878L107.013 22.1419L107.459 21.6961L107.905 21.2502L108.351 20.8044L108.797 20.3585L109.242 19.9127L109.688 19.4669L110.134 19.021L110.58 18.5752L111.026 18.1293L111.472 17.6835L111.917 17.2376L112.363 16.7918L112.809 16.3459L113.04 16.0965L113.049 16.046L113.055 15.994L113.058 15.9406L113.058 15.8863L113.053 15.8313L113.045 15.7759L113.033 15.7208L113.017 15.6661L112.997 15.6124L112.973 15.56L112.946 15.5094L112.915 15.461L112.881 15.415L112.844 15.3717L112.804 15.3315L112.763 15.2944L112.719 15.2608L112.674 15.2307L112.628 15.2041L112.581 15.181L112.534 15.1613L112.499 15.1761L112.466 15.201L112.431 15.2241L112.394 15.2451L112.355 15.2636L112.315 15.2797L112.273 15.293L112.231 15.3035L112.188 15.3111L112.144 15.3156L112.101 15.3172L112.057 15.3158L112.014 15.3114L111.972 15.3042L111.932 15.2943L111.892 15.282L111.854 15.2673L111.854 15.2675Z" stroke="black" stroke-width="0.255138"/>
<path d="M104.236 7.65165L103.731 8.15641L103.226 8.6612L102.722 9.16596L102.217 9.67072L101.712 10.1755L101.207 10.6803L100.702 11.185L100.198 11.6898L99.6929 12.1946L99.1882 12.6993L98.6834 13.2041L98.1786 13.7089L97.6739 14.2136L97.1691 14.7184L96.7405 15.1068L96.7022 14.9088L96.6726 14.7152L96.6508 14.5273L96.6363 14.346L96.6284 14.1722L96.6265 14.007L96.63 13.8514L96.6383 13.7065L96.6507 13.5731L96.6665 13.4524L96.6853 13.3452L96.7062 13.2527L96.7288 13.1759L96.7524 13.1157L96.9155 12.938L97.3614 12.4921L97.8072 12.0463L98.2531 11.6004L98.6989 11.1546L99.1448 10.7088L99.5906 10.2629L100.036 9.81705L100.482 9.3712L100.928 8.92535L101.374 8.47953L101.82 8.03368L102.266 7.58784L102.712 7.14199L103.157 6.69614L103.407 6.46538L103.457 6.45604L103.509 6.44981L103.563 6.44699L103.617 6.44765L103.672 6.45204L103.727 6.46022L103.782 6.47237L103.837 6.48843L103.891 6.50841L103.943 6.53216L103.994 6.55958L104.042 6.59049L104.088 6.62459L104.132 6.66153L104.172 6.70107L104.209 6.7427L104.242 6.78627L104.273 6.83127L104.299 6.87737L104.322 6.92416L104.342 6.97129L104.327 7.00651L104.302 7.03953L104.279 7.07452L104.258 7.11147L104.24 7.15016L104.224 7.1904L104.21 7.23189L104.2 7.27432L104.192 7.31748L104.188 7.36103L104.186 7.40462L104.188 7.44801L104.192 7.49081L104.199 7.53282L104.209 7.57371L104.221 7.61331L104.236 7.65143L104.236 7.65165Z" stroke="black" stroke-width="0.255138"/>
<path d="M113.006 15.6299L113.074 15.5729L113.139 15.5114L113.198 15.4453L113.253 15.3754L113.404 15.1209L113.72 14.5643L114.037 14.0077L114.353 13.4511L114.669 12.8945L114.986 12.3379L115.302 11.7814L115.618 11.2248L115.935 10.6682L116.251 10.1116L116.567 9.55503L116.884 8.99847L117.2 8.44187L117.516 7.88529L117.833 7.3287L117.907 7.18424L117.959 7.07418L118.011 6.95649L118.065 6.83193L118.118 6.70123L118.171 6.56508L118.224 6.42419L118.275 6.2793L118.324 6.13111L118.371 5.98032L118.414 5.82768L118.454 5.67383L118.491 5.51957L118.522 5.36557L118.549 5.21253L118.57 5.06092L118.586 4.91085L118.597 4.76243L118.603 4.61582L118.605 4.47111L118.602 4.32839L118.595 4.18783L118.583 4.04954L118.568 3.91358L118.549 3.78015L118.526 3.64931L118.5 3.5212L118.47 3.39591L118.437 3.27357L118.401 3.15435L118.363 3.03817L118.321 2.92503L118.277 2.81494L118.23 2.70789L118.18 2.60388L118.128 2.50292L118.073 2.40492L118.016 2.30992L117.957 2.21792L117.895 2.12889L117.832 2.04282L117.766 1.9597L117.698 1.87952L117.624 1.80584L117.544 1.73794L117.461 1.67205L117.375 1.60828L117.286 1.54667L117.194 1.48732L117.099 1.43031L117.001 1.37569L116.9 1.3235L116.796 1.27389L116.689 1.22691L116.579 1.18262L116.466 1.1411L116.349 1.1024L116.23 1.06658L116.108 1.03382L115.983 1.00421L115.854 0.9779L115.724 0.955086L115.59 0.935899L115.454 0.920566L115.316 0.909183L115.175 0.90197L115.033 0.899093L114.888 0.900676L114.741 0.906898L114.593 0.917978L114.443 0.934013L114.291 0.955176L114.138 0.981672L113.984 1.01322L113.83 1.04934L113.676 1.08951L113.523 1.13315L113.373 1.17979L113.224 1.22887L113.08 1.27987L112.939 1.33228L112.802 1.38553L112.672 1.4391L112.547 1.49249L112.43 1.54518L112.32 1.59661L112.175 1.67117L111.618 1.9875L111.062 2.30383L110.505 2.62016L109.949 2.93647L109.392 3.25281L108.836 3.56914L108.279 3.88548L107.722 4.20178L107.166 4.51813L106.609 4.83446L106.053 5.15079L105.496 5.46712L104.939 5.78343L104.383 6.09977L104.128 6.25037L104.058 6.30529L103.992 6.36503L103.931 6.42929L103.874 6.49728" stroke="black" stroke-width="0.255138"/>
</g>
<defs>
<linearGradient id="paint0_linear_582_12910" x1="76.2923" y1="37.8254" x2="78.3168" y2="39.8498" gradientUnits="userSpaceOnUse">
<stop/>
<stop offset="1" stop-opacity="0"/>
</linearGradient>
<linearGradient id="paint1_linear_582_12910" x1="81.7397" y1="43.2289" x2="79.7449" y2="41.234" gradientUnits="userSpaceOnUse">
<stop/>
<stop offset="1" stop-opacity="0"/>
</linearGradient>
<linearGradient id="paint2_linear_582_12910" x1="103.989" y1="10.0447" x2="106.045" y2="12.101" gradientUnits="userSpaceOnUse">
<stop/>
<stop offset="1" stop-opacity="0"/>
</linearGradient>
<linearGradient id="paint3_linear_582_12910" x1="109.5" y1="15.5553" x2="107.474" y2="13.5291" gradientUnits="userSpaceOnUse">
<stop/>
<stop offset="1" stop-opacity="0"/>
</linearGradient>
<radialGradient id="paint4_radial_582_12910" cx="0" cy="0" r="1" gradientUnits="userSpaceOnUse" gradientTransform="translate(113.663 5.83071) rotate(37.9962) scale(3.23651 6.64774)">
<stop stop-color="#F9F9F9"/>
<stop offset="1" stop-color="#F9F9F9"/>
</radialGradient>
<linearGradient id="paint5_linear_582_12910" x1="108.232" y1="18.6698" x2="109.429" y2="19.8672" gradientUnits="userSpaceOnUse">
<stop stop-color="white"/>
<stop offset="1" stop-color="#F2F2F2"/>
</linearGradient>
<linearGradient id="paint6_linear_582_12910" x1="99.597" y1="10.0409" x2="100.794" y2="11.2383" gradientUnits="userSpaceOnUse">
<stop stop-color="#ECECEC"/>
<stop offset="1" stop-color="white"/>
</linearGradient>
<clipPath id="clip0_582_12910">
<rect width="120" height="120" fill="white"/>
</clipPath>
</defs>
</svg>
