<svg width="120" height="120" viewBox="0 0 120 120" fill="none" xmlns="http://www.w3.org/2000/svg">
<g clip-path="url(#clip0_582_12884)">
<path d="M102.745 26.5357L93.7051 17.4961L13.8752 97.3259L22.9149 106.366L102.745 26.5357Z" fill="#F7F7F7"/>
<path opacity="0.0336538" d="M98.1005 22.3486L93.7598 18.0078L14.4169 97.3507L18.7576 101.691L98.1005 22.3486Z" fill="white"/>
<path opacity="0.0336538" d="M98.0489 22.2735L102.326 26.5508L23.0093 105.868L18.7321 101.59L98.0489 22.2735Z" fill="white"/>
<path d="M93.6393 35.7409L84.582 26.6836L67.0247 44.241L76.0819 53.2983L93.6393 35.7409Z" fill="#4D4D4D"/>
<path d="M93.6855 17.5703L102.732 26.6173" stroke="black" stroke-width="0.603819"/>
<path d="M67.0371 44.2109L76.0841 53.2579" stroke="black" stroke-width="0.603819"/>
<path d="M84.6094 26.6406L93.6563 35.6876" stroke="black" stroke-width="0.603819"/>
<path d="M119.088 1.21094L100.65 19.6485" stroke="black" stroke-width="0.603819"/>
<path d="M6.12634 119.412L5.88897 119.174L5.65161 118.937L5.41424 118.699L5.17688 118.462L4.93951 118.225L4.70215 117.987L4.46477 117.75L4.22741 117.513L3.99004 117.275L3.75268 117.038L3.51531 116.801L3.27794 116.563L3.04058 116.326L2.80321 116.088L2.56585 115.851L2.32848 115.614L2.09111 115.376L1.85375 115.139L1.61638 114.902L1.37901 114.664L1.14164 114.427L0.904279 114.189L1.79356 113.569L2.81837 112.953L3.8704 112.384L4.94647 111.862L6.04337 111.389L7.15762 110.967L7.63738 110.701L7.66863 110.519L7.70711 110.336L7.75272 110.154L7.80557 109.97L7.86557 109.787L7.93287 109.602L8.00727 109.418L8.08898 109.232L8.17799 109.046L8.27406 108.859L8.37751 108.67L8.4881 108.482L8.60601 108.292L8.73127 108.101L8.86359 107.909L9.00333 107.715L9.15027 107.521L9.30452 107.325L9.4659 107.128L9.63474 106.929L9.81079 106.729L9.9869 106.713L10.1574 106.884L10.3279 107.054L10.4984 107.225L10.6688 107.395L10.8393 107.566L11.0098 107.736L11.1803 107.907L11.3508 108.077L11.5213 108.248L11.6917 108.418L11.8622 108.589L12.0327 108.759L12.2032 108.93L12.3737 109.1L12.5442 109.271L12.7147 109.441L12.8852 109.612L13.0556 109.782L13.2261 109.953L13.3966 110.123L13.5671 110.294L13.5836 110.469L13.3834 110.646L13.1847 110.815L12.9874 110.977L12.7915 111.132L12.5969 111.28L12.4035 111.42L12.2113 111.553L12.0202 111.679L11.8302 111.797L11.6412 111.909L11.4531 112.013L11.2658 112.109L11.0793 112.199L10.8936 112.281L10.7087 112.356L10.5243 112.424L10.3405 112.485L10.1573 112.538L9.97434 112.585L9.79193 112.624L9.61009 112.655L9.36224 113.04L8.94445 114.156L8.47619 115.254L7.95846 116.332L7.39314 117.387L6.78169 118.414L6.12648 119.411L6.12634 119.412Z" fill="#333333" stroke="black" stroke-width="0.603819"/>
<path d="M96.662 15.6525L104.645 23.635L113.003 15.2766L116.216 10.4678L119.343 2.58518C119.444 2.35373 119.474 2.09862 119.429 1.85279C119.384 1.60697 119.267 1.38175 119.091 1.20614C118.915 1.03053 118.69 0.912584 118.444 0.867609C118.198 0.822633 117.943 0.85267 117.712 0.953807L109.829 4.08134L105.02 7.29402L96.662 15.6525Z" stroke="black" stroke-width="0.603819"/>
<path d="M104.644 23.6359L102.73 26.6139L23.027 106.317L16.1746 105.945C15.7173 105.868 15.2974 105.651 14.9715 105.325C14.6456 105 14.4294 104.58 14.352 104.122L13.98 97.27L93.6831 17.5669L96.6611 15.6533" stroke="black" stroke-width="0.603819"/>
<path d="M23.0235 106.316L13.9766 97.2695" stroke="black" stroke-width="0.603819"/>
<path d="M14.9707 105.324L11.7831 108.512" stroke="black" stroke-width="0.603819"/>
<path d="M13.9766 97.2695L9.98295 106.715" stroke="black" stroke-width="0.603819"/>
<path d="M23.0287 106.316L13.5831 110.309" stroke="black" stroke-width="0.603819"/>
<path d="M110.051 10.7015C114.971 5.78139 119.018 1.7794 119.044 1.80812C119.218 1.99683 118.978 2.72585 117.575 6.27698L116.003 10.2585L114.486 12.5517L112.97 14.845L108.806 19.0138L104.641 23.1826L102.873 21.4147L101.105 19.6468L110.051 10.7012L110.051 10.7015Z" fill="#F2F2F2"/>
<path d="M101.189 11.5614L105.298 7.45172L107.619 5.90032L109.94 4.34898L113.932 2.76257C116.127 1.89003 117.992 1.17264 118.076 1.16838C118.233 1.16031 118.477 1.21939 118.538 1.28024C118.562 1.3046 115.846 4.04277 109.61 10.2778L100.648 19.2404L98.8633 17.4558L97.0788 15.6712L101.189 11.5614V11.5614Z" fill="#F2F2F2"/>
<path d="M94.2253 17.5755C94.2591 17.5438 94.8085 17.1826 95.4462 16.7726L96.6056 16.0273L100.441 19.845L104.276 23.6628L104.217 23.7573C104 24.1062 102.721 26.0883 102.698 26.1109C102.683 26.1262 100.756 24.225 98.417 21.8859C94.388 17.8569 94.1674 17.6297 94.2255 17.5753L94.2253 17.5755Z" fill="#F2F2F2"/>
<path d="M14.6308 104.631C14.4497 104.23 14.4536 104.274 14.3239 100.874L14.2012 97.6563L16.308 99.7326C17.4693 100.872 19.3465 102.749 20.4797 103.904L22.5444 106L19.2676 105.875C17.0234 105.789 15.8877 105.706 15.6632 105.613C15.2748 105.451 14.7934 104.993 14.6315 104.631L14.6308 104.631Z" fill="#EFEFEF"/>
<path opacity="0.0336538" d="M98.0584 22.3182L93.6777 17.9375L14.3468 97.2684L18.7275 101.649L98.0584 22.3182Z" fill="url(#paint0_linear_582_12884)"/>
<path opacity="0.0336538" d="M98.0096 22.2459L102.326 26.5625L23.0213 105.867L18.7047 101.551L98.0096 22.2459Z" fill="url(#paint1_linear_582_12884)"/>
</g>
<defs>
<linearGradient id="paint0_linear_582_12884" x1="76.7793" y1="37.803" x2="78.9027" y2="39.9264" gradientUnits="userSpaceOnUse">
<stop/>
<stop offset="1" stop-opacity="0"/>
</linearGradient>
<linearGradient id="paint1_linear_582_12884" x1="82.4885" y1="43.4767" x2="80.3961" y2="41.3843" gradientUnits="userSpaceOnUse">
<stop/>
<stop offset="1" stop-opacity="0"/>
</linearGradient>
<clipPath id="clip0_582_12884">
<rect width="120" height="120" fill="white"/>
</clipPath>
</defs>
</svg>
