<svg version="1.1" viewBox="0.0 0.0 600.0 371.0" fill="none" stroke="none" stroke-linecap="square" stroke-miterlimit="10" width="600" height="371" xmlns:xlink="http://www.w3.org/1999/xlink" xmlns="http://www.w3.org/2000/svg"><path fill="#ffffff" d="M0 0L600.0 0L600.0 371.0L0 371.0L0 0Z" fill-rule="nonzero"/><path fill="#4285f4" d="M245.28372 0C347.73254 0 430.78372 83.05118 430.78372 185.5L245.28372 185.5Z" fill-rule="nonzero"/><path fill="#ea4335" d="M430.78372 185.5C430.78372 265.86346 379.0366 337.0873 302.60638 361.921L245.28372 185.5Z" fill-rule="nonzero"/><path fill="#f07b72" d="M235.96341 0.23429455C239.06772 0.078122854 242.17548 0 245.28372 0L245.28372 185.5Z" fill-rule="nonzero"/><path fill="#7baaf7" d="M210.52449 3.285715C218.92366 1.6834866 227.42357 0.66391516 235.96341 0.23429455L245.28372 185.5Z" fill-rule="nonzero"/><path fill="#46bdc6" d="M145.88785 28.87717C165.62814 16.349602 187.55873 7.6666684 210.52449 3.285715L245.28372 185.5Z" fill-rule="nonzero"/><path fill="#ff6d01" d="M60.149765 173.85236C63.878235 114.59005 95.7521 60.694286 145.88785 28.87717L245.28372 185.5Z" fill-rule="nonzero"/><path fill="#34a853" d="M65.61155 231.63197C60.77066 212.77797 58.927513 193.27951 60.149765 173.85236L245.28372 185.5Z" fill-rule="nonzero"/><path fill="#fbbc04" d="M302.60638 361.921C253.893 377.74893 200.80309 372.73044 155.91841 348.0549C111.03375 323.37933 78.34951 281.24307 65.61155 231.63197L245.28372 185.5Z" fill-rule="nonzero"/><path fill="#4285f4" d="M495.30078 49.0C495.30078 52.31371 492.6145 55.0 489.30078 55.0C485.98706 55.0 483.30078 52.31371 483.30078 49.0C483.30078 45.68629 485.98706 43.0 489.30078 43.0C492.6145 43.0 495.30078 45.68629 495.30078 49.0Z" fill-rule="nonzero"/><path fill="#1a1a1a" d="M504.2539 53.0L504.2539 44.40625L510.45703 44.40625L510.45703 45.421875L505.39453 45.421875L505.39453 48.046875L510.14453 48.046875L510.14453 49.0625L505.39453 49.0625L505.39453 51.984375L510.66016 51.984375L510.66016 53.0L504.2539 53.0ZM516.16016 50.71875L517.1914 50.859375Q517.01953 51.921875 516.3164 52.53125Q515.6133 53.140625 514.59766 53.140625Q513.3164 53.140625 512.53516 52.3125Q511.76953 51.46875 511.76953 49.90625Q511.76953 48.90625 512.09766 48.15625Q512.4414 47.390625 513.1133 47.015625Q513.8008 46.640625 514.6133 46.640625Q515.6133 46.640625 516.2539 47.15625Q516.91016 47.65625 517.09766 48.609375L516.0664 48.765625Q515.9258 48.140625 515.5508 47.828125Q515.1758 47.5 514.64453 47.5Q513.84766 47.5 513.34766 48.078125Q512.84766 48.640625 512.84766 49.875Q512.84766 51.140625 513.33203 51.703125Q513.8164 52.265625 514.58203 52.265625Q515.20703 52.265625 515.6133 51.890625Q516.03516 51.515625 516.16016 50.71875ZM517.70703 49.890625Q517.70703 48.15625 518.66016 47.328125Q519.45703 46.640625 520.6133 46.640625Q521.89453 46.640625 522.70703 47.484375Q523.53516 48.3125 523.53516 49.796875Q523.53516 51.0 523.1758 51.6875Q522.8164 52.375 522.1133 52.765625Q521.4258 53.140625 520.6133 53.140625Q519.3164 53.140625 518.5039 52.3125Q517.70703 51.46875 517.70703 49.890625ZM518.78516 49.890625Q518.78516 51.078125 519.3008 51.671875Q519.83203 52.265625 520.6133 52.265625Q521.41016 52.265625 521.9258 51.671875Q522.4414 51.078125 522.4414 49.859375Q522.4414 48.703125 521.91016 48.109375Q521.39453 47.515625 520.6133 47.515625Q519.83203 47.515625 519.3008 48.109375Q518.78516 48.6875 518.78516 49.890625ZM524.6758 51.140625L525.70703 50.984375Q525.8008 51.609375 526.1914 51.9375Q526.59766 52.265625 527.33203 52.265625Q528.0508 52.265625 528.39453 51.984375Q528.7539 51.6875 528.7539 51.28125Q528.7539 50.921875 528.4414 50.71875Q528.22266 50.578125 527.3633 50.359375Q526.20703 50.0625 525.7539 49.859375Q525.3164 49.640625 525.08203 49.265625Q524.84766 48.890625 524.84766 48.421875Q524.84766 48.015625 525.03516 47.65625Q525.22266 47.296875 525.5508 47.0625Q525.8008 46.890625 526.22266 46.765625Q526.64453 46.640625 527.14453 46.640625Q527.8633 46.640625 528.41016 46.859375Q528.97266 47.0625 529.2383 47.421875Q529.5039 47.78125 529.59766 48.375L528.5664 48.515625Q528.5039 48.046875 528.16016 47.78125Q527.83203 47.5 527.20703 47.5Q526.4883 47.5 526.1758 47.75Q525.8633 47.984375 525.8633 48.3125Q525.8633 48.515625 525.9883 48.671875Q526.1289 48.84375 526.39453 48.953125Q526.5508 49.015625 527.33203 49.21875Q528.45703 49.53125 528.89453 49.71875Q529.33203 49.90625 529.58203 50.265625Q529.83203 50.625 529.83203 51.171875Q529.83203 51.703125 529.51953 52.171875Q529.22266 52.625 528.64453 52.890625Q528.0664 53.140625 527.33203 53.140625Q526.1133 53.140625 525.47266 52.640625Q524.84766 52.125 524.6758 51.140625ZM532.0508 55.390625L531.9258 54.40625Q532.26953 54.5 532.53516 54.5Q532.8789 54.5 533.08203 54.375Q533.3008 54.265625 533.4414 54.0625Q533.53516 53.890625 533.76953 53.265625Q533.78516 53.1875 533.8633 53.015625L531.4883 46.78125L532.6289 46.78125L533.9258 50.375Q534.1758 51.0625 534.3789 51.828125Q534.5664 51.09375 534.8164 50.40625L536.14453 46.78125L537.1914 46.78125L534.83203 53.109375Q534.4414 54.125 534.2383 54.515625Q533.95703 55.046875 533.58203 55.28125Q533.22266 55.53125 532.72266 55.53125Q532.4258 55.53125 532.0508 55.390625ZM536.6758 51.140625L537.70703 50.984375Q537.8008 51.609375 538.1914 51.9375Q538.59766 52.265625 539.33203 52.265625Q540.0508 52.265625 540.39453 51.984375Q540.7539 51.6875 540.7539 51.28125Q540.7539 50.921875 540.4414 50.71875Q540.22266 50.578125 539.3633 50.359375Q538.20703 50.0625 537.7539 49.859375Q537.3164 49.640625 537.08203 49.265625Q536.84766 48.890625 536.84766 48.421875Q536.84766 48.015625 537.03516 47.65625Q537.22266 47.296875 537.5508 47.0625Q537.8008 46.890625 538.22266 46.765625Q538.64453 46.640625 539.14453 46.640625Q539.8633 46.640625 540.41016 46.859375Q540.97266 47.0625 541.2383 47.421875Q541.5039 47.78125 541.59766 48.375L540.5664 48.515625Q540.5039 48.046875 540.16016 47.78125Q539.83203 47.5 539.20703 47.5Q538.4883 47.5 538.1758 47.75Q537.8633 47.984375 537.8633 48.3125Q537.8633 48.515625 537.9883 48.671875Q538.1289 48.84375 538.39453 48.953125Q538.5508 49.015625 539.33203 49.21875Q540.45703 49.53125 540.89453 49.71875Q541.33203 49.90625 541.58203 50.265625Q541.83203 50.625 541.83203 51.171875Q541.83203 51.703125 541.51953 52.171875Q541.22266 52.625 540.64453 52.890625Q540.0664 53.140625 539.33203 53.140625Q538.1133 53.140625 537.47266 52.640625Q536.84766 52.125 536.6758 51.140625ZM546.39453 52.0625L546.5508 52.984375Q546.09766 53.078125 545.7539 53.078125Q545.1758 53.078125 544.8633 52.90625Q544.5508 52.71875 544.41016 52.421875Q544.28516 52.125 544.28516 51.171875L544.28516 47.59375L543.51953 47.59375L543.51953 46.78125L544.28516 46.78125L544.28516 45.234375L545.33203 44.609375L545.33203 46.78125L546.39453 46.78125L546.39453 47.59375L545.33203 47.59375L545.33203 51.234375Q545.33203 51.6875 545.3789 51.8125Q545.4414 51.9375 545.5664 52.015625Q545.6914 52.09375 545.9258 52.09375Q546.1133 52.09375 546.39453 52.0625ZM551.34766 51.0L552.4414 51.125Q552.1914 52.078125 551.4883 52.609375Q550.78516 53.140625 549.70703 53.140625Q548.34766 53.140625 547.53516 52.296875Q546.7383 51.453125 546.7383 49.9375Q546.7383 48.375 547.5508 47.515625Q548.3633 46.640625 549.64453 46.640625Q550.89453 46.640625 551.6758 47.484375Q552.47266 48.328125 552.47266 49.875Q552.47266 49.96875 552.47266 50.15625L547.83203 50.15625Q547.89453 51.1875 548.41016 51.734375Q548.9258 52.265625 549.70703 52.265625Q550.28516 52.265625 550.6914 51.96875Q551.1133 51.65625 551.34766 51.0ZM547.89453 49.296875L551.3633 49.296875Q551.3008 48.5 550.97266 48.109375Q550.45703 47.5 549.66016 47.5Q548.9258 47.5 548.4258 47.984375Q547.9414 48.46875 547.89453 49.296875ZM554.09766 53.0L554.09766 46.78125L555.03516 46.78125L555.03516 47.65625Q555.33203 47.1875 555.8164 46.921875Q556.3008 46.640625 556.9258 46.640625Q557.6133 46.640625 558.0508 46.921875Q558.5039 47.203125 558.6758 47.71875Q559.4258 46.640625 560.59766 46.640625Q561.53516 46.640625 562.01953 47.15625Q562.51953 47.65625 562.51953 48.734375L562.51953 53.0L561.47266 53.0L561.47266 49.078125Q561.47266 48.453125 561.3633 48.171875Q561.26953 47.890625 561.0039 47.71875Q560.7383 47.546875 560.3633 47.546875Q559.70703 47.546875 559.26953 47.984375Q558.84766 48.421875 558.84766 49.390625L558.84766 53.0L557.78516 53.0L557.78516 48.953125Q557.78516 48.25 557.51953 47.90625Q557.26953 47.546875 556.6914 47.546875Q556.2383 47.546875 555.8633 47.78125Q555.4883 48.015625 555.3164 48.46875Q555.14453 48.921875 555.14453 49.765625L555.14453 53.0L554.09766 53.0Z" fill-rule="nonzero"/><path fill="#ea4335" d="M495.30078 73.0C495.30078 76.313705 492.6145 79.0 489.30078 79.0C485.98706 79.0 483.30078 76.313705 483.30078 73.0C483.30078 69.686295 485.98706 67.0 489.30078 67.0C492.6145 67.0 495.30078 69.686295 495.30078 73.0Z" fill-rule="nonzero"/><path fill="#1a1a1a" d="M504.28516 77.0L504.28516 68.40625L510.08203 68.40625L510.08203 69.421875L505.42578 69.421875L505.42578 72.078125L509.45703 72.078125L509.45703 73.09375L505.42578 73.09375L505.42578 77.0L504.28516 77.0ZM510.70703 73.890625Q510.70703 72.15625 511.66016 71.328125Q512.45703 70.640625 513.6133 70.640625Q514.89453 70.640625 515.70703 71.484375Q516.53516 72.3125 516.53516 73.796875Q516.53516 75.0 516.1758 75.6875Q515.8164 76.375 515.1133 76.765625Q514.4258 77.140625 513.6133 77.140625Q512.3164 77.140625 511.5039 76.3125Q510.70703 75.46875 510.70703 73.890625ZM511.78516 73.890625Q511.78516 75.078125 512.3008 75.671875Q512.83203 76.265625 513.6133 76.265625Q514.41016 76.265625 514.9258 75.671875Q515.4414 75.078125 515.4414 73.859375Q515.4414 72.703125 514.91016 72.109375Q514.39453 71.515625 513.6133 71.515625Q512.83203 71.515625 512.3008 72.109375Q511.78516 72.6875 511.78516 73.890625ZM522.1758 77.0L522.1758 76.078125Q521.4414 77.140625 520.1914 77.140625Q519.64453 77.140625 519.16016 76.9375Q518.6914 76.71875 518.45703 76.40625Q518.22266 76.078125 518.1289 75.609375Q518.0664 75.3125 518.0664 74.625L518.0664 70.78125L519.1289 70.78125L519.1289 74.234375Q519.1289 75.046875 519.1914 75.34375Q519.28516 75.75 519.59766 76.0Q519.9258 76.234375 520.41016 76.234375Q520.8789 76.234375 521.28516 76.0Q521.70703 75.75 521.8789 75.328125Q522.0664 74.90625 522.0664 74.109375L522.0664 70.78125L523.1133 70.78125L523.1133 77.0L522.1758 77.0ZM525.09766 77.0L525.09766 70.78125L526.03516 70.78125L526.03516 71.65625Q526.72266 70.640625 528.01953 70.640625Q528.58203 70.640625 529.0508 70.84375Q529.53516 71.046875 529.76953 71.375Q530.0039 71.703125 530.09766 72.140625Q530.14453 72.4375 530.14453 73.171875L530.14453 77.0L529.09766 77.0L529.09766 73.21875Q529.09766 72.5625 528.97266 72.25Q528.84766 71.9375 528.53516 71.75Q528.22266 71.546875 527.8008 71.546875Q527.1289 71.546875 526.6289 71.984375Q526.14453 72.40625 526.14453 73.59375L526.14453 77.0L525.09766 77.0ZM536.1289 77.0L536.1289 76.21875Q535.53516 77.140625 534.39453 77.140625Q533.64453 77.140625 533.01953 76.734375Q532.39453 76.3125 532.0508 75.578125Q531.70703 74.84375 531.70703 73.890625Q531.70703 72.96875 532.01953 72.203125Q532.33203 71.4375 532.95703 71.046875Q533.58203 70.640625 534.34766 70.640625Q534.91016 70.640625 535.34766 70.875Q535.78516 71.109375 536.0664 71.484375L536.0664 68.40625L537.1133 68.40625L537.1133 77.0L536.1289 77.0ZM532.8008 73.890625Q532.8008 75.09375 533.3008 75.6875Q533.8008 76.265625 534.4883 76.265625Q535.1758 76.265625 535.66016 75.703125Q536.14453 75.140625 536.14453 73.984375Q536.14453 72.703125 535.64453 72.109375Q535.16016 71.515625 534.4414 71.515625Q533.7383 71.515625 533.26953 72.09375Q532.8008 72.65625 532.8008 73.890625ZM543.16016 76.234375Q542.5664 76.734375 542.01953 76.9375Q541.4883 77.140625 540.8633 77.140625Q539.83203 77.140625 539.28516 76.640625Q538.7383 76.140625 538.7383 75.359375Q538.7383 74.90625 538.9414 74.53125Q539.14453 74.140625 539.4883 73.921875Q539.83203 73.6875 540.2539 73.578125Q540.5508 73.484375 541.1914 73.40625Q542.45703 73.265625 543.0664 73.046875Q543.0664 72.828125 543.0664 72.78125Q543.0664 72.125 542.76953 71.859375Q542.3633 71.515625 541.5664 71.515625Q540.83203 71.515625 540.47266 71.78125Q540.1133 72.03125 539.9414 72.6875L538.91016 72.546875Q539.0508 71.890625 539.3789 71.484375Q539.70703 71.078125 540.3164 70.859375Q540.9258 70.640625 541.72266 70.640625Q542.51953 70.640625 543.01953 70.828125Q543.51953 71.015625 543.7539 71.296875Q543.9883 71.578125 544.08203 72.015625Q544.1289 72.28125 544.1289 72.984375L544.1289 74.390625Q544.1289 75.859375 544.1914 76.25Q544.26953 76.640625 544.47266 77.0L543.3633 77.0Q543.20703 76.671875 543.16016 76.234375ZM543.0664 73.875Q542.4883 74.109375 541.34766 74.28125Q540.6914 74.375 540.4258 74.5Q540.16016 74.609375 540.0039 74.828125Q539.8633 75.046875 539.8633 75.328125Q539.8633 75.75 540.1758 76.03125Q540.5039 76.3125 541.1133 76.3125Q541.72266 76.3125 542.1914 76.046875Q542.6758 75.78125 542.89453 75.3125Q543.0664 74.953125 543.0664 74.265625L543.0664 73.875ZM548.39453 76.0625L548.5508 76.984375Q548.09766 77.078125 547.7539 77.078125Q547.1758 77.078125 546.8633 76.90625Q546.5508 76.71875 546.41016 76.421875Q546.28516 76.125 546.28516 75.171875L546.28516 71.59375L545.51953 71.59375L545.51953 70.78125L546.28516 70.78125L546.28516 69.234375L547.33203 68.609375L547.33203 70.78125L548.39453 70.78125L548.39453 71.59375L547.33203 71.59375L547.33203 75.234375Q547.33203 75.6875 547.3789 75.8125Q547.4414 75.9375 547.5664 76.015625Q547.6914 76.09375 547.9258 76.09375Q548.1133 76.09375 548.39453 76.0625ZM549.09766 69.625L549.09766 68.40625L550.16016 68.40625L550.16016 69.625L549.09766 69.625ZM549.09766 77.0L549.09766 70.78125L550.16016 70.78125L550.16016 77.0L549.09766 77.0ZM551.70703 73.890625Q551.70703 72.15625 552.66016 71.328125Q553.45703 70.640625 554.6133 70.640625Q555.89453 70.640625 556.70703 71.484375Q557.53516 72.3125 557.53516 73.796875Q557.53516 75.0 557.1758 75.6875Q556.8164 76.375 556.1133 76.765625Q555.4258 77.140625 554.6133 77.140625Q553.3164 77.140625 552.5039 76.3125Q551.70703 75.46875 551.70703 73.890625ZM552.78516 73.890625Q552.78516 75.078125 553.3008 75.671875Q553.83203 76.265625 554.6133 76.265625Q555.41016 76.265625 555.9258 75.671875Q556.4414 75.078125 556.4414 73.859375Q556.4414 72.703125 555.91016 72.109375Q555.39453 71.515625 554.6133 71.515625Q553.83203 71.515625 553.3008 72.109375Q552.78516 72.6875 552.78516 73.890625ZM559.09766 77.0L559.09766 70.78125L560.03516 70.78125L560.03516 71.65625Q560.72266 70.640625 562.01953 70.640625Q562.58203 70.640625 563.0508 70.84375Q563.53516 71.046875 563.76953 71.375Q564.0039 71.703125 564.09766 72.140625Q564.14453 72.4375 564.14453 73.171875L564.14453 77.0L563.09766 77.0L563.09766 73.21875Q563.09766 72.5625 562.97266 72.25Q562.84766 71.9375 562.53516 71.75Q562.22266 71.546875 561.8008 71.546875Q561.1289 71.546875 560.6289 71.984375Q560.14453 72.40625 560.14453 73.59375L560.14453 77.0L559.09766 77.0Z" fill-rule="nonzero"/><path fill="#fbbc04" d="M495.30078 97.0C495.30078 100.313705 492.6145 103.0 489.30078 103.0C485.98706 103.0 483.30078 100.313705 483.30078 97.0C483.30078 93.686295 485.98706 91.0 489.30078 91.0C492.6145 91.0 495.30078 93.686295 495.30078 97.0Z" fill-rule="nonzero"/><path fill="#1a1a1a" d="M504.22266 101.0L504.22266 92.40625L507.47266 92.40625Q508.3164 92.40625 508.76953 92.484375Q509.41016 92.59375 509.83203 92.890625Q510.26953 93.1875 510.51953 93.71875Q510.78516 94.25 510.78516 94.890625Q510.78516 95.984375 510.08203 96.75Q509.39453 97.5 507.5664 97.5L505.36328 97.5L505.36328 101.0L504.22266 101.0ZM505.36328 96.5L507.58203 96.5Q508.6914 96.5 509.14453 96.09375Q509.61328 95.671875 509.61328 94.921875Q509.61328 94.390625 509.33203 94.015625Q509.0664 93.625 508.6289 93.5Q508.33203 93.421875 507.5664 93.421875L505.36328 93.421875L505.36328 96.5ZM512.08203 101.0L512.08203 94.78125L513.03516 94.78125L513.03516 95.71875Q513.39453 95.0625 513.6914 94.859375Q514.0039 94.640625 514.3789 94.640625Q514.91016 94.640625 515.45703 94.96875L515.09766 95.953125Q514.70703 95.71875 514.33203 95.71875Q513.97266 95.71875 513.6914 95.9375Q513.4258 96.140625 513.3164 96.515625Q513.1289 97.078125 513.1289 97.734375L513.1289 101.0L512.08203 101.0ZM516.09766 93.625L516.09766 92.40625L517.16016 92.40625L517.16016 93.625L516.09766 93.625ZM516.09766 101.0L516.09766 94.78125L517.16016 94.78125L517.16016 101.0L516.09766 101.0ZM520.8164 101.0L518.45703 94.78125L519.5664 94.78125L520.91016 98.5Q521.1133 99.109375 521.3008 99.75Q521.4414 99.265625 521.6914 98.578125L523.08203 94.78125L524.16016 94.78125L521.8008 101.0L520.8164 101.0ZM528.16016 100.234375Q527.5664 100.734375 527.01953 100.9375Q526.4883 101.140625 525.8633 101.140625Q524.83203 101.140625 524.28516 100.640625Q523.7383 100.140625 523.7383 99.359375Q523.7383 98.90625 523.9414 98.53125Q524.14453 98.140625 524.4883 97.921875Q524.83203 97.6875 525.2539 97.578125Q525.5508 97.484375 526.1914 97.40625Q527.45703 97.265625 528.0664 97.046875Q528.0664 96.828125 528.0664 96.78125Q528.0664 96.125 527.76953 95.859375Q527.3633 95.515625 526.5664 95.515625Q525.83203 95.515625 525.47266 95.78125Q525.1133 96.03125 524.9414 96.6875L523.91016 96.546875Q524.0508 95.890625 524.3789 95.484375Q524.70703 95.078125 525.3164 94.859375Q525.9258 94.640625 526.72266 94.640625Q527.51953 94.640625 528.01953 94.828125Q528.51953 95.015625 528.7539 95.296875Q528.9883 95.578125 529.08203 96.015625Q529.1289 96.28125 529.1289 96.984375L529.1289 98.390625Q529.1289 99.859375 529.1914 100.25Q529.26953 100.640625 529.47266 101.0L528.3633 101.0Q528.20703 100.671875 528.16016 100.234375ZM528.0664 97.875Q527.4883 98.109375 526.34766 98.28125Q525.6914 98.375 525.4258 98.5Q525.16016 98.609375 525.0039 98.828125Q524.8633 99.046875 524.8633 99.328125Q524.8633 99.75 525.1758 100.03125Q525.5039 100.3125 526.1133 100.3125Q526.72266 100.3125 527.1914 100.046875Q527.6758 99.78125 527.89453 99.3125Q528.0664 98.953125 528.0664 98.265625L528.0664 97.875ZM533.39453 100.0625L533.5508 100.984375Q533.09766 101.078125 532.7539 101.078125Q532.1758 101.078125 531.8633 100.90625Q531.5508 100.71875 531.41016 100.421875Q531.28516 100.125 531.28516 99.171875L531.28516 95.59375L530.51953 95.59375L530.51953 94.78125L531.28516 94.78125L531.28516 93.234375L532.33203 92.609375L532.33203 94.78125L533.39453 94.78125L533.39453 95.59375L532.33203 95.59375L532.33203 99.234375Q532.33203 99.6875 532.3789 99.8125Q532.4414 99.9375 532.5664 100.015625Q532.6914 100.09375 532.9258 100.09375Q533.1133 100.09375 533.39453 100.0625ZM538.34766 99.0L539.4414 99.125Q539.1914 100.078125 538.4883 100.609375Q537.78516 101.140625 536.70703 101.140625Q535.34766 101.140625 534.53516 100.296875Q533.7383 99.453125 533.7383 97.9375Q533.7383 96.375 534.5508 95.515625Q535.3633 94.640625 536.64453 94.640625Q537.89453 94.640625 538.6758 95.484375Q539.47266 96.328125 539.47266 97.875Q539.47266 97.96875 539.47266 98.15625L534.83203 98.15625Q534.89453 99.1875 535.41016 99.734375Q535.9258 100.265625 536.70703 100.265625Q537.28516 100.265625 537.6914 99.96875Q538.1133 99.65625 538.34766 99.0ZM534.89453 97.296875L538.3633 97.296875Q538.3008 96.5 537.97266 96.109375Q537.45703 95.5 536.66016 95.5Q535.9258 95.5 535.4258 95.984375Q534.9414 96.46875 534.89453 97.296875ZM543.84766 98.234375L544.91016 98.140625Q544.9883 98.796875 545.26953 99.203125Q545.5508 99.609375 546.1289 99.875Q546.72266 100.125 547.45703 100.125Q548.09766 100.125 548.59766 99.9375Q549.09766 99.734375 549.33203 99.40625Q549.58203 99.0625 549.58203 98.671875Q549.58203 98.265625 549.34766 97.96875Q549.1133 97.65625 548.58203 97.453125Q548.22266 97.3125 547.03516 97.03125Q545.8633 96.75 545.39453 96.5Q544.76953 96.171875 544.47266 95.703125Q544.1758 95.21875 544.1758 94.625Q544.1758 93.984375 544.53516 93.421875Q544.91016 92.84375 545.6133 92.5625Q546.33203 92.265625 547.1914 92.265625Q548.14453 92.265625 548.8789 92.578125Q549.6133 92.875 550.0039 93.484375Q550.39453 94.078125 550.4258 94.828125L549.33203 94.90625Q549.2383 94.09375 548.72266 93.6875Q548.22266 93.265625 547.2383 93.265625Q546.20703 93.265625 545.7383 93.640625Q545.26953 94.015625 545.26953 94.546875Q545.26953 95.015625 545.59766 95.3125Q545.9258 95.609375 547.3008 95.921875Q548.6914 96.234375 549.20703 96.46875Q549.95703 96.828125 550.3164 97.359375Q550.6758 97.875 550.6758 98.578125Q550.6758 99.265625 550.28516 99.875Q549.89453 100.46875 549.16016 100.8125Q548.4258 101.140625 547.5039 101.140625Q546.33203 101.140625 545.53516 100.8125Q544.7539 100.46875 544.3008 99.78125Q543.8633 99.09375 543.84766 98.234375ZM556.16016 100.234375Q555.5664 100.734375 555.01953 100.9375Q554.4883 101.140625 553.8633 101.140625Q552.83203 101.140625 552.28516 100.640625Q551.7383 100.140625 551.7383 99.359375Q551.7383 98.90625 551.9414 98.53125Q552.14453 98.140625 552.4883 97.921875Q552.83203 97.6875 553.2539 97.578125Q553.5508 97.484375 554.1914 97.40625Q555.45703 97.265625 556.0664 97.046875Q556.0664 96.828125 556.0664 96.78125Q556.0664 96.125 555.76953 95.859375Q555.3633 95.515625 554.5664 95.515625Q553.83203 95.515625 553.47266 95.78125Q553.1133 96.03125 552.9414 96.6875L551.91016 96.546875Q552.0508 95.890625 552.3789 95.484375Q552.70703 95.078125 553.3164 94.859375Q553.9258 94.640625 554.72266 94.640625Q555.51953 94.640625 556.01953 94.828125Q556.51953 95.015625 556.7539 95.296875Q556.9883 95.578125 557.08203 96.015625Q557.1289 96.28125 557.1289 96.984375L557.1289 98.390625Q557.1289 99.859375 557.1914 100.25Q557.26953 100.640625 557.47266 101.0L556.3633 101.0Q556.20703 100.671875 556.16016 100.234375ZM556.0664 97.875Q555.4883 98.109375 554.34766 98.28125Q553.6914 98.375 553.4258 98.5Q553.16016 98.609375 553.0039 98.828125Q552.8633 99.046875 552.8633 99.328125Q552.8633 99.75 553.1758 100.03125Q553.5039 100.3125 554.1133 100.3125Q554.72266 100.3125 555.1914 100.046875Q555.6758 99.78125 555.89453 99.3125Q556.0664 98.953125 556.0664 98.265625L556.0664 97.875ZM559.0664 101.0L559.0664 92.40625L560.1289 92.40625L560.1289 101.0L559.0664 101.0ZM566.34766 99.0L567.4414 99.125Q567.1914 100.078125 566.4883 100.609375Q565.78516 101.140625 564.70703 101.140625Q563.34766 101.140625 562.53516 100.296875Q561.7383 99.453125 561.7383 97.9375Q561.7383 96.375 562.5508 95.515625Q563.3633 94.640625 564.64453 94.640625Q565.89453 94.640625 566.6758 95.484375Q567.47266 96.328125 567.47266 97.875Q567.47266 97.96875 567.47266 98.15625L562.83203 98.15625Q562.89453 99.1875 563.41016 99.734375Q563.9258 100.265625 564.70703 100.265625Q565.28516 100.265625 565.6914 99.96875Q566.1133 99.65625 566.34766 99.0ZM562.89453 97.296875L566.3633 97.296875Q566.3008 96.5 565.97266 96.109375Q565.45703 95.5 564.66016 95.5Q563.9258 95.5 563.4258 95.984375Q562.9414 96.46875 562.89453 97.296875Z" fill-rule="nonzero"/><path fill="#34a853" d="M495.30078 121.0C495.30078 124.313705 492.6145 127.0 489.30078 127.0C485.98706 127.0 483.30078 124.313705 483.30078 121.0C483.30078 117.686295 485.98706 115.0 489.30078 115.0C492.6145 115.0 495.30078 117.686295 495.30078 121.0Z" fill-rule="nonzero"/><path fill="#1a1a1a" d="M504.22266 125.0L504.22266 116.40625L507.47266 116.40625Q508.3164 116.40625 508.76953 116.484375Q509.41016 116.59375 509.83203 116.890625Q510.26953 117.1875 510.51953 117.71875Q510.78516 118.25 510.78516 118.890625Q510.78516 119.984375 510.08203 120.75Q509.39453 121.5 507.5664 121.5L505.36328 121.5L505.36328 125.0L504.22266 125.0ZM505.36328 120.5L507.58203 120.5Q508.6914 120.5 509.14453 120.09375Q509.61328 119.671875 509.61328 118.921875Q509.61328 118.390625 509.33203 118.015625Q509.0664 117.625 508.6289 117.5Q508.33203 117.421875 507.5664 117.421875L505.36328 117.421875L505.36328 120.5ZM516.1758 125.0L516.1758 124.078125Q515.4414 125.140625 514.1914 125.140625Q513.64453 125.140625 513.16016 124.9375Q512.6914 124.71875 512.45703 124.40625Q512.22266 124.078125 512.1289 123.609375Q512.0664 123.3125 512.0664 122.625L512.0664 118.78125L513.1289 118.78125L513.1289 122.234375Q513.1289 123.046875 513.1914 123.34375Q513.28516 123.75 513.59766 124.0Q513.9258 124.234375 514.41016 124.234375Q514.8789 124.234375 515.28516 124.0Q515.70703 123.75 515.8789 123.328125Q516.0664 122.90625 516.0664 122.109375L516.0664 118.78125L517.1133 118.78125L517.1133 125.0L516.1758 125.0ZM520.0664 125.0L519.08203 125.0L519.08203 116.40625L520.14453 116.40625L520.14453 119.46875Q520.8164 118.640625 521.84766 118.640625Q522.4258 118.640625 522.9258 118.875Q523.4414 119.09375 523.76953 119.515625Q524.1133 119.9375 524.3008 120.53125Q524.4883 121.125 524.4883 121.796875Q524.4883 123.390625 523.6914 124.265625Q522.89453 125.140625 521.8008 125.140625Q520.6914 125.140625 520.0664 124.21875L520.0664 125.0ZM520.0508 121.84375Q520.0508 122.953125 520.3633 123.453125Q520.8633 124.265625 521.70703 124.265625Q522.39453 124.265625 522.89453 123.671875Q523.41016 123.078125 523.41016 121.875Q523.41016 120.65625 522.9258 120.078125Q522.4414 119.5 521.7539 119.5Q521.0664 119.5 520.5508 120.109375Q520.0508 120.703125 520.0508 121.84375ZM526.0664 125.0L526.0664 116.40625L527.1289 116.40625L527.1289 125.0L526.0664 125.0ZM529.09766 117.625L529.09766 116.40625L530.16016 116.40625L530.16016 117.625L529.09766 117.625ZM529.09766 125.0L529.09766 118.78125L530.16016 118.78125L530.16016 125.0L529.09766 125.0ZM536.16016 122.71875L537.1914 122.859375Q537.01953 123.921875 536.3164 124.53125Q535.6133 125.140625 534.59766 125.140625Q533.3164 125.140625 532.53516 124.3125Q531.76953 123.46875 531.76953 121.90625Q531.76953 120.90625 532.09766 120.15625Q532.4414 119.390625 533.1133 119.015625Q533.8008 118.640625 534.6133 118.640625Q535.6133 118.640625 536.2539 119.15625Q536.91016 119.65625 537.09766 120.609375L536.0664 120.765625Q535.9258 120.140625 535.5508 119.828125Q535.1758 119.5 534.64453 119.5Q533.84766 119.5 533.34766 120.078125Q532.84766 120.640625 532.84766 121.875Q532.84766 123.140625 533.33203 123.703125Q533.8164 124.265625 534.58203 124.265625Q535.20703 124.265625 535.6133 123.890625Q536.03516 123.515625 536.16016 122.71875ZM540.84766 122.234375L541.91016 122.140625Q541.9883 122.796875 542.26953 123.203125Q542.5508 123.609375 543.1289 123.875Q543.72266 124.125 544.45703 124.125Q545.09766 124.125 545.59766 123.9375Q546.09766 123.734375 546.33203 123.40625Q546.58203 123.0625 546.58203 122.671875Q546.58203 122.265625 546.34766 121.96875Q546.1133 121.65625 545.58203 121.453125Q545.22266 121.3125 544.03516 121.03125Q542.8633 120.75 542.39453 120.5Q541.76953 120.171875 541.47266 119.703125Q541.1758 119.21875 541.1758 118.625Q541.1758 117.984375 541.53516 117.421875Q541.91016 116.84375 542.6133 116.5625Q543.33203 116.265625 544.1914 116.265625Q545.14453 116.265625 545.8789 116.578125Q546.6133 116.875 547.0039 117.484375Q547.39453 118.078125 547.4258 118.828125L546.33203 118.90625Q546.2383 118.09375 545.72266 117.6875Q545.22266 117.265625 544.2383 117.265625Q543.20703 117.265625 542.7383 117.640625Q542.26953 118.015625 542.26953 118.546875Q542.26953 119.015625 542.59766 119.3125Q542.9258 119.609375 544.3008 119.921875Q545.6914 120.234375 546.20703 120.46875Q546.95703 120.828125 547.3164 121.359375Q547.6758 121.875 547.6758 122.578125Q547.6758 123.265625 547.28516 123.875Q546.89453 124.46875 546.16016 124.8125Q545.4258 125.140625 544.5039 125.140625Q543.33203 125.140625 542.53516 124.8125Q541.7539 124.46875 541.3008 123.78125Q540.8633 123.09375 540.84766 122.234375ZM553.16016 124.234375Q552.5664 124.734375 552.01953 124.9375Q551.4883 125.140625 550.8633 125.140625Q549.83203 125.140625 549.28516 124.640625Q548.7383 124.140625 548.7383 123.359375Q548.7383 122.90625 548.9414 122.53125Q549.14453 122.140625 549.4883 121.921875Q549.83203 121.6875 550.2539 121.578125Q550.5508 121.484375 551.1914 121.40625Q552.45703 121.265625 553.0664 121.046875Q553.0664 120.828125 553.0664 120.78125Q553.0664 120.125 552.76953 119.859375Q552.3633 119.515625 551.5664 119.515625Q550.83203 119.515625 550.47266 119.78125Q550.1133 120.03125 549.9414 120.6875L548.91016 120.546875Q549.0508 119.890625 549.3789 119.484375Q549.70703 119.078125 550.3164 118.859375Q550.9258 118.640625 551.72266 118.640625Q552.51953 118.640625 553.01953 118.828125Q553.51953 119.015625 553.7539 119.296875Q553.9883 119.578125 554.08203 120.015625Q554.1289 120.28125 554.1289 120.984375L554.1289 122.390625Q554.1289 123.859375 554.1914 124.25Q554.26953 124.640625 554.47266 125.0L553.3633 125.0Q553.20703 124.671875 553.16016 124.234375ZM553.0664 121.875Q552.4883 122.109375 551.34766 122.28125Q550.6914 122.375 550.4258 122.5Q550.16016 122.609375 550.0039 122.828125Q549.8633 123.046875 549.8633 123.328125Q549.8633 123.75 550.1758 124.03125Q550.5039 124.3125 551.1133 124.3125Q551.72266 124.3125 552.1914 124.046875Q552.6758 123.78125 552.89453 123.3125Q553.0664 122.953125 553.0664 122.265625L553.0664 121.875ZM556.0664 125.0L556.0664 116.40625L557.1289 116.40625L557.1289 125.0L556.0664 125.0ZM563.34766 123.0L564.4414 123.125Q564.1914 124.078125 563.4883 124.609375Q562.78516 125.140625 561.70703 125.140625Q560.34766 125.140625 559.53516 124.296875Q558.7383 123.453125 558.7383 121.9375Q558.7383 120.375 559.5508 119.515625Q560.3633 118.640625 561.64453 118.640625Q562.89453 118.640625 563.6758 119.484375Q564.47266 120.328125 564.47266 121.875Q564.47266 121.96875 564.47266 122.15625L559.83203 122.15625Q559.89453 123.1875 560.41016 123.734375Q560.9258 124.265625 561.70703 124.265625Q562.28516 124.265625 562.6914 123.96875Q563.1133 123.65625 563.34766 123.0ZM559.89453 121.296875L563.3633 121.296875Q563.3008 120.5 562.97266 120.109375Q562.45703 119.5 561.66016 119.5Q560.9258 119.5 560.4258 119.984375Q559.9414 120.46875 559.89453 121.296875Z" fill-rule="nonzero"/><path fill="#ff6d01" d="M495.30078 145.0C495.30078 148.3137 492.6145 151.0 489.30078 151.0C485.98706 151.0 483.30078 148.3137 483.30078 145.0C483.30078 141.6863 485.98706 139.0 489.30078 139.0C492.6145 139.0 495.30078 141.6863 495.30078 145.0Z" fill-rule="nonzero"/><path fill="#1a1a1a" d="M506.41016 149.0L506.41016 141.42188L503.58203 141.42188L503.58203 140.40625L510.39453 140.40625L510.39453 141.42188L507.55078 141.42188L507.55078 149.0L506.41016 149.0ZM515.34766 147.0L516.4414 147.125Q516.1914 148.07812 515.4883 148.60938Q514.78516 149.14062 513.70703 149.14062Q512.34766 149.14062 511.53516 148.29688Q510.73828 147.45312 510.73828 145.9375Q510.73828 144.375 511.55078 143.51562Q512.3633 142.64062 513.64453 142.64062Q514.89453 142.64062 515.6758 143.48438Q516.47266 144.32812 516.47266 145.875Q516.47266 145.96875 516.47266 146.15625L511.83203 146.15625Q511.89453 147.1875 512.41016 147.73438Q512.9258 148.26562 513.70703 148.26562Q514.28516 148.26562 514.6914 147.96875Q515.1133 147.65625 515.34766 147.0ZM511.89453 145.29688L515.3633 145.29688Q515.3008 144.5 514.97266 144.10938Q514.45703 143.5 513.66016 143.5Q512.9258 143.5 512.4258 143.98438Q511.9414 144.46875 511.89453 145.29688ZM522.16016 146.71875L523.1914 146.85938Q523.01953 147.92188 522.3164 148.53125Q521.6133 149.14062 520.59766 149.14062Q519.3164 149.14062 518.53516 148.3125Q517.76953 147.46875 517.76953 145.90625Q517.76953 144.90625 518.09766 144.15625Q518.4414 143.39062 519.1133 143.01562Q519.8008 142.64062 520.6133 142.64062Q521.6133 142.64062 522.2539 143.15625Q522.91016 143.65625 523.09766 144.60938L522.0664 144.76562Q521.9258 144.14062 521.5508 143.82812Q521.1758 143.5 520.64453 143.5Q519.84766 143.5 519.34766 144.07812Q518.84766 144.64062 518.84766 145.875Q518.84766 147.14062 519.33203 147.70312Q519.8164 148.26562 520.58203 148.26562Q521.20703 148.26562 521.6133 147.89062Q522.03516 147.51562 522.16016 146.71875ZM524.09766 149.0L524.09766 140.40625L525.14453 140.40625L525.14453 143.48438Q525.8789 142.64062 527.0039 142.64062Q527.70703 142.64062 528.20703 142.92188Q528.72266 143.1875 528.9414 143.67188Q529.16016 144.14062 529.16016 145.0625L529.16016 149.0L528.1133 149.0L528.1133 145.0625Q528.1133 144.26562 527.76953 143.90625Q527.4258 143.54688 526.8008 143.54688Q526.33203 143.54688 525.91016 143.79688Q525.5039 144.03125 525.3164 144.45312Q525.14453 144.85938 525.14453 145.59375L525.14453 149.0L524.09766 149.0ZM531.09766 149.0L531.09766 142.78125L532.03516 142.78125L532.03516 143.65625Q532.72266 142.64062 534.01953 142.64062Q534.58203 142.64062 535.0508 142.84375Q535.53516 143.04688 535.76953 143.375Q536.0039 143.70312 536.09766 144.14062Q536.14453 144.4375 536.14453 145.17188L536.14453 149.0L535.09766 149.0L535.09766 145.21875Q535.09766 144.5625 534.97266 144.25Q534.84766 143.9375 534.53516 143.75Q534.22266 143.54688 533.8008 143.54688Q533.1289 143.54688 532.6289 143.98438Q532.14453 144.40625 532.14453 145.59375L532.14453 149.0L531.09766 149.0ZM538.09766 141.625L538.09766 140.40625L539.16016 140.40625L539.16016 141.625L538.09766 141.625ZM538.09766 149.0L538.09766 142.78125L539.16016 142.78125L539.16016 149.0L538.09766 149.0ZM545.16016 146.71875L546.1914 146.85938Q546.01953 147.92188 545.3164 148.53125Q544.6133 149.14062 543.59766 149.14062Q542.3164 149.14062 541.53516 148.3125Q540.76953 147.46875 540.76953 145.90625Q540.76953 144.90625 541.09766 144.15625Q541.4414 143.39062 542.1133 143.01562Q542.8008 142.64062 543.6133 142.64062Q544.6133 142.64062 545.2539 143.15625Q545.91016 143.65625 546.09766 144.60938L545.0664 144.76562Q544.9258 144.14062 544.5508 143.82812Q544.1758 143.5 543.64453 143.5Q542.84766 143.5 542.34766 144.07812Q541.84766 144.64062 541.84766 145.875Q541.84766 147.14062 542.33203 147.70312Q542.8164 148.26562 543.58203 148.26562Q544.20703 148.26562 544.6133 147.89062Q545.03516 147.51562 545.16016 146.71875ZM551.16016 148.23438Q550.5664 148.73438 550.01953 148.9375Q549.4883 149.14062 548.8633 149.14062Q547.83203 149.14062 547.28516 148.64062Q546.7383 148.14062 546.7383 147.35938Q546.7383 146.90625 546.9414 146.53125Q547.14453 146.14062 547.4883 145.92188Q547.83203 145.6875 548.2539 145.57812Q548.5508 145.48438 549.1914 145.40625Q550.45703 145.26562 551.0664 145.04688Q551.0664 144.82812 551.0664 144.78125Q551.0664 144.125 550.76953 143.85938Q550.3633 143.51562 549.5664 143.51562Q548.83203 143.51562 548.47266 143.78125Q548.1133 144.03125 547.9414 144.6875L546.91016 144.54688Q547.0508 143.89062 547.3789 143.48438Q547.70703 143.07812 548.3164 142.85938Q548.9258 142.64062 549.72266 142.64062Q550.51953 142.64062 551.01953 142.82812Q551.51953 143.01562 551.7539 143.29688Q551.9883 143.57812 552.08203 144.01562Q552.1289 144.28125 552.1289 144.98438L552.1289 146.39062Q552.1289 147.85938 552.1914 148.25Q552.26953 148.64062 552.47266 149.0L551.3633 149.0Q551.20703 148.67188 551.16016 148.23438ZM551.0664 145.875Q550.4883 146.10938 549.34766 146.28125Q548.6914 146.375 548.4258 146.5Q548.16016 146.60938 548.0039 146.82812Q547.8633 147.04688 547.8633 147.32812Q547.8633 147.75 548.1758 148.03125Q548.5039 148.3125 549.1133 148.3125Q549.72266 148.3125 550.1914 148.04688Q550.6758 147.78125 550.89453 147.3125Q551.0664 146.95312 551.0664 146.26562L551.0664 145.875ZM554.0664 149.0L554.0664 140.40625L555.1289 140.40625L555.1289 149.0L554.0664 149.0Z" fill-rule="nonzero"/><path fill="#46bdc6" d="M495.30078 169.0C495.30078 172.3137 492.6145 175.0 489.30078 175.0C485.98706 175.0 483.30078 172.3137 483.30078 169.0C483.30078 165.6863 485.98706 163.0 489.30078 163.0C492.6145 163.0 495.30078 165.6863 495.30078 169.0Z" fill-rule="nonzero"/><path fill="#1a1a1a" d="M504.22266 173.0L504.22266 164.40625L507.47266 164.40625Q508.3164 164.40625 508.76953 164.48438Q509.41016 164.59375 509.83203 164.89062Q510.26953 165.1875 510.51953 165.71875Q510.78516 166.25 510.78516 166.89062Q510.78516 167.98438 510.08203 168.75Q509.39453 169.5 507.5664 169.5L505.36328 169.5L505.36328 173.0L504.22266 173.0ZM505.36328 168.5L507.58203 168.5Q508.6914 168.5 509.14453 168.09375Q509.61328 167.67188 509.61328 166.92188Q509.61328 166.39062 509.33203 166.01562Q509.0664 165.625 508.6289 165.5Q508.33203 165.42188 507.5664 165.42188L505.36328 165.42188L505.36328 168.5ZM516.16016 172.23438Q515.5664 172.73438 515.01953 172.9375Q514.4883 173.14062 513.8633 173.14062Q512.83203 173.14062 512.28516 172.64062Q511.73828 172.14062 511.73828 171.35938Q511.73828 170.90625 511.9414 170.53125Q512.14453 170.14062 512.4883 169.92188Q512.83203 169.6875 513.2539 169.57812Q513.5508 169.48438 514.1914 169.40625Q515.45703 169.26562 516.0664 169.04688Q516.0664 168.82812 516.0664 168.78125Q516.0664 168.125 515.76953 167.85938Q515.3633 167.51562 514.5664 167.51562Q513.83203 167.51562 513.47266 167.78125Q513.1133 168.03125 512.9414 168.6875L511.91016 168.54688Q512.0508 167.89062 512.3789 167.48438Q512.70703 167.07812 513.3164 166.85938Q513.9258 166.64062 514.72266 166.64062Q515.51953 166.64062 516.01953 166.82812Q516.51953 167.01562 516.7539 167.29688Q516.9883 167.57812 517.08203 168.01562Q517.1289 168.28125 517.1289 168.98438L517.1289 170.39062Q517.1289 171.85938 517.1914 172.25Q517.26953 172.64062 517.47266 173.0L516.3633 173.0Q516.20703 172.67188 516.16016 172.23438ZM516.0664 169.875Q515.4883 170.10938 514.34766 170.28125Q513.6914 170.375 513.4258 170.5Q513.16016 170.60938 513.0039 170.82812Q512.8633 171.04688 512.8633 171.32812Q512.8633 171.75 513.1758 172.03125Q513.5039 172.3125 514.1133 172.3125Q514.72266 172.3125 515.1914 172.04688Q515.6758 171.78125 515.89453 171.3125Q516.0664 170.95312 516.0664 170.26562L516.0664 169.875ZM519.08203 173.0L519.08203 166.78125L520.03516 166.78125L520.03516 167.71875Q520.39453 167.0625 520.6914 166.85938Q521.0039 166.64062 521.3789 166.64062Q521.91016 166.64062 522.45703 166.96875L522.09766 167.95312Q521.70703 167.71875 521.33203 167.71875Q520.97266 167.71875 520.6914 167.9375Q520.4258 168.14062 520.3164 168.51562Q520.1289 169.07812 520.1289 169.73438L520.1289 173.0L519.08203 173.0ZM525.39453 172.0625L525.5508 172.98438Q525.09766 173.07812 524.7539 173.07812Q524.1758 173.07812 523.8633 172.90625Q523.5508 172.71875 523.41016 172.42188Q523.28516 172.125 523.28516 171.17188L523.28516 167.59375L522.51953 167.59375L522.51953 166.78125L523.28516 166.78125L523.28516 165.23438L524.33203 164.60938L524.33203 166.78125L525.39453 166.78125L525.39453 167.59375L524.33203 167.59375L524.33203 171.23438Q524.33203 171.6875 524.3789 171.8125Q524.4414 171.9375 524.5664 172.01562Q524.6914 172.09375 524.9258 172.09375Q525.1133 172.09375 525.39453 172.0625ZM526.09766 173.0L526.09766 166.78125L527.03516 166.78125L527.03516 167.65625Q527.72266 166.64062 529.01953 166.64062Q529.58203 166.64062 530.0508 166.84375Q530.53516 167.04688 530.76953 167.375Q531.0039 167.70312 531.09766 168.14062Q531.14453 168.4375 531.14453 169.17188L531.14453 173.0L530.09766 173.0L530.09766 169.21875Q530.09766 168.5625 529.97266 168.25Q529.84766 167.9375 529.53516 167.75Q529.22266 167.54688 528.8008 167.54688Q528.1289 167.54688 527.6289 167.98438Q527.14453 168.40625 527.14453 169.59375L527.14453 173.0L526.09766 173.0ZM537.34766 171.0L538.4414 171.125Q538.1914 172.07812 537.4883 172.60938Q536.78516 173.14062 535.70703 173.14062Q534.34766 173.14062 533.53516 172.29688Q532.7383 171.45312 532.7383 169.9375Q532.7383 168.375 533.5508 167.51562Q534.3633 166.64062 535.64453 166.64062Q536.89453 166.64062 537.6758 167.48438Q538.47266 168.32812 538.47266 169.875Q538.47266 169.96875 538.47266 170.15625L533.83203 170.15625Q533.89453 171.1875 534.41016 171.73438Q534.9258 172.26562 535.70703 172.26562Q536.28516 172.26562 536.6914 171.96875Q537.1133 171.65625 537.34766 171.0ZM533.89453 169.29688L537.3633 169.29688Q537.3008 168.5 536.97266 168.10938Q536.45703 167.5 535.66016 167.5Q534.9258 167.5 534.4258 167.98438Q533.9414 168.46875 533.89453 169.29688ZM540.08203 173.0L540.08203 166.78125L541.03516 166.78125L541.03516 167.71875Q541.39453 167.0625 541.6914 166.85938Q542.0039 166.64062 542.3789 166.64062Q542.91016 166.64062 543.45703 166.96875L543.09766 167.95312Q542.70703 167.71875 542.33203 167.71875Q541.97266 167.71875 541.6914 167.9375Q541.4258 168.14062 541.3164 168.51562Q541.1289 169.07812 541.1289 169.73438L541.1289 173.0L540.08203 173.0ZM543.6758 171.14062L544.70703 170.98438Q544.8008 171.60938 545.1914 171.9375Q545.59766 172.26562 546.33203 172.26562Q547.0508 172.26562 547.39453 171.98438Q547.7539 171.6875 547.7539 171.28125Q547.7539 170.92188 547.4414 170.71875Q547.22266 170.57812 546.3633 170.35938Q545.20703 170.0625 544.7539 169.85938Q544.3164 169.64062 544.08203 169.26562Q543.84766 168.89062 543.84766 168.42188Q543.84766 168.01562 544.03516 167.65625Q544.22266 167.29688 544.5508 167.0625Q544.8008 166.89062 545.22266 166.76562Q545.64453 166.64062 546.14453 166.64062Q546.8633 166.64062 547.41016 166.85938Q547.97266 167.0625 548.2383 167.42188Q548.5039 167.78125 548.59766 168.375L547.5664 168.51562Q547.5039 168.04688 547.16016 167.78125Q546.83203 167.5 546.20703 167.5Q545.4883 167.5 545.1758 167.75Q544.8633 167.98438 544.8633 168.3125Q544.8633 168.51562 544.9883 168.67188Q545.1289 168.84375 545.39453 168.95312Q545.5508 169.01562 546.33203 169.21875Q547.45703 169.53125 547.89453 169.71875Q548.33203 169.90625 548.58203 170.26562Q548.83203 170.625 548.83203 171.17188Q548.83203 171.70312 548.51953 172.17188Q548.22266 172.625 547.64453 172.89062Q547.0664 173.14062 546.33203 173.14062Q545.1133 173.14062 544.47266 172.64062Q543.84766 172.125 543.6758 171.14062Z" fill-rule="nonzero"/><path fill="#7baaf7" d="M495.30078 193.0C495.30078 196.3137 492.6145 199.0 489.30078 199.0C485.98706 199.0 483.30078 196.3137 483.30078 193.0C483.30078 189.6863 485.98706 187.0 489.30078 187.0C492.6145 187.0 495.30078 189.6863 495.30078 193.0Z" fill-rule="nonzero"/><path fill="#1a1a1a" d="M503.28516 197.0L506.58203 188.40625L507.80078 188.40625L511.3164 197.0L510.03516 197.0L509.01953 194.39062L505.4414 194.39062L504.48828 197.0L503.28516 197.0ZM505.76953 193.46875L508.67578 193.46875L507.78516 191.09375Q507.36328 190.01562 507.17578 189.3125Q507.0039 190.14062 506.70703 190.95312L505.76953 193.46875ZM511.09766 189.625L511.09766 188.40625L512.16016 188.40625L512.16016 189.625L511.09766 189.625ZM511.09766 197.0L511.09766 190.78125L512.16016 190.78125L512.16016 197.0L511.09766 197.0ZM514.08203 197.0L514.08203 190.78125L515.03516 190.78125L515.03516 191.71875Q515.39453 191.0625 515.6914 190.85938Q516.0039 190.64062 516.3789 190.64062Q516.91016 190.64062 517.45703 190.96875L517.09766 191.95312Q516.70703 191.71875 516.33203 191.71875Q515.97266 191.71875 515.6914 191.9375Q515.4258 192.14062 515.3164 192.51562Q515.1289 193.07812 515.1289 193.73438L515.1289 197.0L514.08203 197.0ZM522.1289 197.0L522.1289 196.21875Q521.53516 197.14062 520.39453 197.14062Q519.64453 197.14062 519.01953 196.73438Q518.39453 196.3125 518.0508 195.57812Q517.70703 194.84375 517.70703 193.89062Q517.70703 192.96875 518.01953 192.20312Q518.33203 191.4375 518.95703 191.04688Q519.58203 190.64062 520.34766 190.64062Q520.91016 190.64062 521.34766 190.875Q521.78516 191.10938 522.0664 191.48438L522.0664 188.40625L523.1133 188.40625L523.1133 197.0L522.1289 197.0ZM518.8008 193.89062Q518.8008 195.09375 519.3008 195.6875Q519.8008 196.26562 520.4883 196.26562Q521.1758 196.26562 521.66016 195.70312Q522.14453 195.14062 522.14453 193.98438Q522.14453 192.70312 521.64453 192.10938Q521.16016 191.51562 520.4414 191.51562Q519.7383 191.51562 519.26953 192.09375Q518.8008 192.65625 518.8008 193.89062ZM525.08203 197.0L525.08203 190.78125L526.03516 190.78125L526.03516 191.71875Q526.39453 191.0625 526.6914 190.85938Q527.0039 190.64062 527.3789 190.64062Q527.91016 190.64062 528.45703 190.96875L528.09766 191.95312Q527.70703 191.71875 527.33203 191.71875Q526.97266 191.71875 526.6914 191.9375Q526.4258 192.14062 526.3164 192.51562Q526.1289 193.07812 526.1289 193.73438L526.1289 197.0L525.08203 197.0ZM528.70703 193.89062Q528.70703 192.15625 529.66016 191.32812Q530.45703 190.64062 531.6133 190.64062Q532.89453 190.64062 533.70703 191.48438Q534.53516 192.3125 534.53516 193.79688Q534.53516 195.0 534.1758 195.6875Q533.8164 196.375 533.1133 196.76562Q532.4258 197.14062 531.6133 197.14062Q530.3164 197.14062 529.5039 196.3125Q528.70703 195.46875 528.70703 193.89062ZM529.78516 193.89062Q529.78516 195.07812 530.3008 195.67188Q530.83203 196.26562 531.6133 196.26562Q532.41016 196.26562 532.9258 195.67188Q533.4414 195.07812 533.4414 193.85938Q533.4414 192.70312 532.91016 192.10938Q532.39453 191.51562 531.6133 191.51562Q530.83203 191.51562 530.3008 192.10938Q529.78516 192.6875 529.78516 193.89062ZM536.09766 199.39062L536.09766 190.78125L537.0508 190.78125L537.0508 191.57812Q537.39453 191.10938 537.8164 190.875Q538.2539 190.64062 538.8633 190.64062Q539.66016 190.64062 540.26953 191.04688Q540.8789 191.45312 541.1758 192.20312Q541.4883 192.95312 541.4883 193.84375Q541.4883 194.79688 541.14453 195.5625Q540.8164 196.32812 540.16016 196.73438Q539.5039 197.14062 538.78516 197.14062Q538.2539 197.14062 537.83203 196.92188Q537.41016 196.6875 537.14453 196.35938L537.14453 199.39062L536.09766 199.39062ZM537.0508 193.92188Q537.0508 195.125 537.53516 195.70312Q538.01953 196.26562 538.70703 196.26562Q539.41016 196.26562 539.91016 195.67188Q540.41016 195.07812 540.41016 193.82812Q540.41016 192.64062 539.9258 192.0625Q539.4414 191.46875 538.7539 191.46875Q538.08203 191.46875 537.5664 192.09375Q537.0508 192.71875 537.0508 193.92188Z" fill-rule="nonzero"/><path fill="#f07b72" d="M495.30078 217.0C495.30078 220.3137 492.6145 223.0 489.30078 223.0C485.98706 223.0 483.30078 220.3137 483.30078 217.0C483.30078 213.6863 485.98706 211.0 489.30078 211.0C492.6145 211.0 495.30078 213.6863 495.30078 217.0Z" fill-rule="nonzero"/><path fill="#1a1a1a" d="M503.64453 218.5625L504.67578 218.42188Q504.70703 219.40625 505.03516 219.76562Q505.36328 220.125 505.95703 220.125Q506.3789 220.125 506.6914 219.9375Q507.0039 219.73438 507.11328 219.40625Q507.23828 219.0625 507.23828 218.32812L507.23828 212.40625L508.36328 212.40625L508.36328 218.26562Q508.36328 219.34375 508.09766 219.9375Q507.84766 220.53125 507.28516 220.84375Q506.72266 221.14062 505.95703 221.14062Q504.83203 221.14062 504.22266 220.5Q503.6289 219.84375 503.64453 218.5625ZM514.1758 221.0L514.1758 220.07812Q513.4414 221.14062 512.1914 221.14062Q511.64453 221.14062 511.16016 220.9375Q510.6914 220.71875 510.45703 220.40625Q510.22266 220.07812 510.1289 219.60938Q510.0664 219.3125 510.0664 218.625L510.0664 214.78125L511.1289 214.78125L511.1289 218.23438Q511.1289 219.04688 511.1914 219.34375Q511.28516 219.75 511.59766 220.0Q511.92578 220.23438 512.41016 220.23438Q512.8789 220.23438 513.28516 220.0Q513.70703 219.75 513.8789 219.32812Q514.0664 218.90625 514.0664 218.10938L514.0664 214.78125L515.1133 214.78125L515.1133 221.0L514.1758 221.0ZM517.09766 221.0L517.09766 214.78125L518.03516 214.78125L518.03516 215.65625Q518.33203 215.1875 518.8164 214.92188Q519.3008 214.64062 519.9258 214.64062Q520.6133 214.64062 521.0508 214.92188Q521.5039 215.20312 521.6758 215.71875Q522.4258 214.64062 523.59766 214.64062Q524.53516 214.64062 525.01953 215.15625Q525.51953 215.65625 525.51953 216.73438L525.51953 221.0L524.47266 221.0L524.47266 217.07812Q524.47266 216.45312 524.3633 216.17188Q524.26953 215.89062 524.0039 215.71875Q523.7383 215.54688 523.3633 215.54688Q522.70703 215.54688 522.26953 215.98438Q521.84766 216.42188 521.84766 217.39062L521.84766 221.0L520.78516 221.0L520.78516 216.95312Q520.78516 216.25 520.51953 215.90625Q520.26953 215.54688 519.6914 215.54688Q519.2383 215.54688 518.8633 215.78125Q518.4883 216.01562 518.3164 216.46875Q518.14453 216.92188 518.14453 217.76562L518.14453 221.0L517.09766 221.0ZM528.09766 223.39062L528.09766 214.78125L529.0508 214.78125L529.0508 215.57812Q529.39453 215.10938 529.8164 214.875Q530.2539 214.64062 530.8633 214.64062Q531.66016 214.64062 532.26953 215.04688Q532.8789 215.45312 533.1758 216.20312Q533.4883 216.95312 533.4883 217.84375Q533.4883 218.79688 533.14453 219.5625Q532.8164 220.32812 532.16016 220.73438Q531.5039 221.14062 530.78516 221.14062Q530.2539 221.14062 529.83203 220.92188Q529.41016 220.6875 529.14453 220.35938L529.14453 223.39062L528.09766 223.39062ZM529.0508 217.92188Q529.0508 219.125 529.53516 219.70312Q530.01953 220.26562 530.70703 220.26562Q531.41016 220.26562 531.91016 219.67188Q532.41016 219.07812 532.41016 217.82812Q532.41016 216.64062 531.9258 216.0625Q531.4414 215.46875 530.7539 215.46875Q530.08203 215.46875 529.5664 216.09375Q529.0508 216.71875 529.0508 217.92188ZM534.6758 219.14062L535.70703 218.98438Q535.8008 219.60938 536.1914 219.9375Q536.59766 220.26562 537.33203 220.26562Q538.0508 220.26562 538.39453 219.98438Q538.7539 219.6875 538.7539 219.28125Q538.7539 218.92188 538.4414 218.71875Q538.22266 218.57812 537.3633 218.35938Q536.20703 218.0625 535.7539 217.85938Q535.3164 217.64062 535.08203 217.26562Q534.84766 216.89062 534.84766 216.42188Q534.84766 216.01562 535.03516 215.65625Q535.22266 215.29688 535.5508 215.0625Q535.8008 214.89062 536.22266 214.76562Q536.64453 214.64062 537.14453 214.64062Q537.8633 214.64062 538.41016 214.85938Q538.97266 215.0625 539.2383 215.42188Q539.5039 215.78125 539.59766 216.375L538.5664 216.51562Q538.5039 216.04688 538.16016 215.78125Q537.83203 215.5 537.20703 215.5Q536.4883 215.5 536.1758 215.75Q535.8633 215.98438 535.8633 216.3125Q535.8633 216.51562 535.9883 216.67188Q536.1289 216.84375 536.39453 216.95312Q536.5508 217.01562 537.33203 217.21875Q538.45703 217.53125 538.89453 217.71875Q539.33203 217.90625 539.58203 218.26562Q539.83203 218.625 539.83203 219.17188Q539.83203 219.70312 539.51953 220.17188Q539.22266 220.625 538.64453 220.89062Q538.0664 221.14062 537.33203 221.14062Q536.1133 221.14062 535.47266 220.64062Q534.84766 220.125 534.6758 219.14062ZM544.39453 220.0625L544.5508 220.98438Q544.09766 221.07812 543.7539 221.07812Q543.1758 221.07812 542.8633 220.90625Q542.5508 220.71875 542.41016 220.42188Q542.28516 220.125 542.28516 219.17188L542.28516 215.59375L541.51953 215.59375L541.51953 214.78125L542.28516 214.78125L542.28516 213.23438L543.33203 212.60938L543.33203 214.78125L544.39453 214.78125L544.39453 215.59375L543.33203 215.59375L543.33203 219.23438Q543.33203 219.6875 543.3789 219.8125Q543.4414 219.9375 543.5664 220.01562Q543.6914 220.09375 543.9258 220.09375Q544.1133 220.09375 544.39453 220.0625ZM549.16016 220.23438Q548.5664 220.73438 548.01953 220.9375Q547.4883 221.14062 546.8633 221.14062Q545.83203 221.14062 545.28516 220.64062Q544.7383 220.14062 544.7383 219.35938Q544.7383 218.90625 544.9414 218.53125Q545.14453 218.14062 545.4883 217.92188Q545.83203 217.6875 546.2539 217.57812Q546.5508 217.48438 547.1914 217.40625Q548.45703 217.26562 549.0664 217.04688Q549.0664 216.82812 549.0664 216.78125Q549.0664 216.125 548.76953 215.85938Q548.3633 215.51562 547.5664 215.51562Q546.83203 215.51562 546.47266 215.78125Q546.1133 216.03125 545.9414 216.6875L544.91016 216.54688Q545.0508 215.89062 545.3789 215.48438Q545.70703 215.07812 546.3164 214.85938Q546.9258 214.64062 547.72266 214.64062Q548.51953 214.64062 549.01953 214.82812Q549.51953 215.01562 549.7539 215.29688Q549.9883 215.57812 550.08203 216.01562Q550.1289 216.28125 550.1289 216.98438L550.1289 218.39062Q550.1289 219.85938 550.1914 220.25Q550.26953 220.64062 550.47266 221.0L549.3633 221.0Q549.20703 220.67188 549.16016 220.23438ZM549.0664 217.875Q548.4883 218.10938 547.34766 218.28125Q546.6914 218.375 546.4258 218.5Q546.16016 218.60938 546.0039 218.82812Q545.8633 219.04688 545.8633 219.32812Q545.8633 219.75 546.1758 220.03125Q546.5039 220.3125 547.1133 220.3125Q547.72266 220.3125 548.1914 220.04688Q548.6758 219.78125 548.89453 219.3125Q549.0664 218.95312 549.0664 218.26562L549.0664 217.875ZM552.08203 221.0L552.08203 214.78125L553.03516 214.78125L553.03516 215.71875Q553.39453 215.0625 553.6914 214.85938Q554.0039 214.64062 554.3789 214.64062Q554.91016 214.64062 555.45703 214.96875L555.09766 215.95312Q554.70703 215.71875 554.33203 215.71875Q553.97266 215.71875 553.6914 215.9375Q553.4258 216.14062 553.3164 216.51562Q553.1289 217.07812 553.1289 217.73438L553.1289 221.0L552.08203 221.0ZM558.39453 220.0625L558.5508 220.98438Q558.09766 221.07812 557.7539 221.07812Q557.1758 221.07812 556.8633 220.90625Q556.5508 220.71875 556.41016 220.42188Q556.28516 220.125 556.28516 219.17188L556.28516 215.59375L555.51953 215.59375L555.51953 214.78125L556.28516 214.78125L556.28516 213.23438L557.33203 212.60938L557.33203 214.78125L558.39453 214.78125L558.39453 215.59375L557.33203 215.59375L557.33203 219.23438Q557.33203 219.6875 557.3789 219.8125Q557.4414 219.9375 557.5664 220.01562Q557.6914 220.09375 557.9258 220.09375Q558.1133 220.09375 558.39453 220.0625Z" fill-rule="nonzero"/></svg>